# xmcd CD database file
#
# Track frame offsets:
#	150
#	51789
#	75869
#	100570
#	122858
#	142231
#	167239
#	192529
#	211069
#	258735
#
# Disc length: 3946 seconds
#
# Revision: 0
# Processed by: cddbd v1.5.2PL0 Copyright (c) Steve Scherf et al.
# Submitted via: CDex 1.97
#
DISCID=8c0f680a
DTITLE=John Coltrane - 1963 New Directions [CD2)
DYEAR=2018
DGENRE=Jazz
TTITLE0=Slow Blues
TTITLE1=They Say It's Wonderful
TTITLE2=Lush Life
TTITLE3=My One And Only Love
TTITLE4=Autumn Serenade
TTITLE5=Dedicated To You
TTITLE6=You Are Too Beautiful
TTITLE7=After The Rain
TTITLE8=Dear Old Stockholm
TTITLE9=I Want To Talk About You
EXTD=YEAR: 2018
EXTT0=
EXTT1=
EXTT2=
EXTT3=
EXTT4=
EXTT5=
EXTT6=
EXTT7=
EXTT8=
EXTT9=
PLAYORDER=
